<svg xmlns="http://www.w3.org/2000/svg" xmlns:xlink="http://www.w3.org/1999/xlink" viewBox="0 0 154.34 108.11"><defs><style>.cls-1{isolation:isolate;}.cls-2{fill:url(#New_Gradient_Swatch_copy_42);}.cls-3{fill:url(#New_Gradient_Swatch_copy_35);}.cls-10,.cls-20,.cls-25,.cls-31,.cls-34,.cls-4,.cls-40,.cls-46,.cls-49,.cls-52,.cls-55,.cls-58,.cls-61,.cls-62,.cls-63,.cls-64,.cls-7{mix-blend-mode:color-dodge;}.cls-4{fill:url(#Radial_Gradient_1);}.cls-5{fill:url(#New_Gradient_Swatch_copy_42-2);}.cls-6{fill:url(#New_Gradient_Swatch_copy_35-2);}.cls-7{fill:url(#Radial_Gradient_1-2);}.cls-8{fill:url(#New_Gradient_Swatch_copy_42-3);}.cls-9{fill:url(#New_Gradient_Swatch_copy_35-3);}.cls-10{fill:url(#Radial_Gradient_1-3);}.cls-11{fill:url(#New_Gradient_Swatch_copy_35-4);}.cls-12{fill:url(#New_Gradient_Swatch_copy_35-5);}.cls-13{fill:url(#New_Gradient_Swatch_copy_35-6);}.cls-14{fill:url(#New_Gradient_Swatch_copy_35-7);}.cls-15{fill:url(#New_Gradient_Swatch_copy_35-8);}.cls-16{fill:url(#New_Gradient_Swatch_copy_35-9);}.cls-17{fill:url(#New_Gradient_Swatch_copy_42-4);}.cls-18{fill:url(#New_Gradient_Swatch_copy_23);}.cls-19{fill:url(#New_Gradient_Swatch_copy_35-10);}.cls-20{fill:url(#Radial_Gradient_1-4);}.cls-21{mix-blend-mode:multiply;fill:url(#radial-gradient);}.cls-22{fill:url(#New_Gradient_Swatch_copy_23-2);}.cls-23{fill:url(#New_Gradient_Swatch_copy_35-11);}.cls-24{fill:url(#New_Gradient_Swatch_copy_7);}.cls-25{fill:url(#Radial_Gradient_1-5);}.cls-26{fill:url(#New_Gradient_Swatch_copy_35-12);}.cls-27{fill:url(#New_Gradient_Swatch_copy_35-13);}.cls-28{fill:url(#New_Gradient_Swatch_copy_35-14);}.cls-29{fill:url(#New_Gradient_Swatch_copy_23-3);}.cls-30{fill:url(#New_Gradient_Swatch_copy_35-15);}.cls-31{fill:url(#Radial_Gradient_1-6);}.cls-32{fill:url(#New_Gradient_Swatch_copy_23-4);}.cls-33{fill:url(#New_Gradient_Swatch_copy_35-16);}.cls-34{fill:url(#Radial_Gradient_1-7);}.cls-35{opacity:0.2;}.cls-36,.cls-37{fill:#a56ef4;mix-blend-mode:screen;}.cls-37{opacity:0.5;}.cls-38{fill:url(#New_Gradient_Swatch_copy_42-5);}.cls-39{fill:url(#New_Gradient_Swatch_copy_35-17);}.cls-40{fill:url(#Radial_Gradient_1-8);}.cls-41{fill:url(#New_Gradient_Swatch_copy_35-18);}.cls-42{fill:url(#New_Gradient_Swatch_copy_35-19);}.cls-43{fill:url(#New_Gradient_Swatch_copy_35-20);}.cls-44{fill:url(#New_Gradient_Swatch_copy_23-5);}.cls-45{fill:url(#New_Gradient_Swatch_copy_35-21);}.cls-46{fill:url(#Radial_Gradient_1-9);}.cls-47{fill:url(#New_Gradient_Swatch_copy_23-6);}.cls-48{fill:url(#New_Gradient_Swatch_copy_35-22);}.cls-49{fill:url(#Radial_Gradient_1-10);}.cls-50{fill:url(#New_Gradient_Swatch_copy_23-7);}.cls-51{fill:url(#New_Gradient_Swatch_copy_35-23);}.cls-52{fill:url(#Radial_Gradient_1-11);}.cls-53{fill:url(#New_Gradient_Swatch_copy_23-8);}.cls-54{fill:url(#New_Gradient_Swatch_copy_35-24);}.cls-55{fill:url(#Radial_Gradient_1-12);}.cls-56{fill:url(#New_Gradient_Swatch_copy_23-9);}.cls-57{fill:url(#New_Gradient_Swatch_copy_35-25);}.cls-58{fill:url(#Radial_Gradient_1-13);}.cls-59{fill:url(#New_Gradient_Swatch_copy_23-10);}.cls-60{fill:url(#New_Gradient_Swatch_copy_35-26);}.cls-61{fill:url(#Radial_Gradient_1-14);}.cls-62{opacity:0.42;fill:url(#radial-gradient-2);}.cls-63{fill:url(#radial-gradient-3);}.cls-64{opacity:0.74;fill:url(#radial-gradient-4);}</style><linearGradient id="New_Gradient_Swatch_copy_42" x1="174.56" y1="33.06" x2="184.83" y2="33.06" gradientTransform="translate(-54.82)" gradientUnits="userSpaceOnUse"><stop offset="0" stop-color="#25054d"/><stop offset="0.5" stop-color="#45108a"/><stop offset="1" stop-color="#25054d"/></linearGradient><linearGradient id="New_Gradient_Swatch_copy_35" x1="5281.15" y1="21.35" x2="5289.42" y2="30.21" gradientTransform="matrix(-1, 0, 0, 1, 5412.19, 0)" gradientUnits="userSpaceOnUse"><stop offset="0" stop-color="#9f79c8"/><stop offset="0.14" stop-color="#a580cb"/><stop offset="0.33" stop-color="#b492d3"/><stop offset="0.55" stop-color="#cdb0e1"/><stop offset="0.58" stop-color="#d1b4e3"/><stop offset="0.76" stop-color="#dbc4e9"/><stop offset="1" stop-color="#ebdef3"/></linearGradient><radialGradient id="Radial_Gradient_1" cx="123.24" cy="30.54" r="3.85" gradientUnits="userSpaceOnUse"><stop offset="0" stop-color="#fff"/><stop offset="1"/></radialGradient><linearGradient id="New_Gradient_Swatch_copy_42-2" x1="10251.67" y1="33.06" x2="10261.94" y2="33.06" gradientTransform="matrix(-1, 0, 0, 1, 10286.26, 0)" xlink:href="#New_Gradient_Swatch_copy_42"/><linearGradient id="New_Gradient_Swatch_copy_35-2" x1="-4795.95" y1="21.35" x2="-4787.68" y2="30.21" gradientTransform="translate(4819.25)" xlink:href="#New_Gradient_Swatch_copy_35"/><radialGradient id="Radial_Gradient_1-2" cx="10200.34" cy="30.54" r="3.85" gradientTransform="matrix(-1, 0, 0, 1, 10231.44, 0)" xlink:href="#Radial_Gradient_1"/><linearGradient id="New_Gradient_Swatch_copy_42-3" x1="174.56" y1="86.94" x2="184.83" y2="86.94" xlink:href="#New_Gradient_Swatch_copy_42"/><linearGradient id="New_Gradient_Swatch_copy_35-3" x1="5281.15" y1="75.23" x2="5289.42" y2="84.1" xlink:href="#New_Gradient_Swatch_copy_35"/><radialGradient id="Radial_Gradient_1-3" cx="123.24" cy="84.42" r="3.85" xlink:href="#Radial_Gradient_1"/><linearGradient id="New_Gradient_Swatch_copy_35-4" x1="8467.63" y1="45.96" x2="8484.08" y2="41.03" gradientTransform="matrix(-1, 0, 0, 1, 8561.8, 0)" xlink:href="#New_Gradient_Swatch_copy_35"/><linearGradient id="New_Gradient_Swatch_copy_35-5" x1="8403.83" y1="47.95" x2="8496.39" y2="27.2" gradientTransform="matrix(-1, 0, 0, 1, 8561.8, 0)" xlink:href="#New_Gradient_Swatch_copy_35"/><linearGradient id="New_Gradient_Swatch_copy_35-6" x1="8460.51" y1="17.56" x2="8451.59" y2="34.56" gradientTransform="matrix(-1, 0, 0, 1, 8561.8, 0)" xlink:href="#New_Gradient_Swatch_copy_35"/><linearGradient id="New_Gradient_Swatch_copy_35-7" x1="-281.49" y1="45.96" x2="-265.03" y2="41.03" gradientTransform="translate(341.8)" xlink:href="#New_Gradient_Swatch_copy_35"/><linearGradient id="New_Gradient_Swatch_copy_35-8" x1="-345.28" y1="47.95" x2="-252.73" y2="27.2" gradientTransform="translate(341.8)" xlink:href="#New_Gradient_Swatch_copy_35"/><linearGradient id="New_Gradient_Swatch_copy_35-9" x1="-288.61" y1="17.56" x2="-297.53" y2="34.56" gradientTransform="translate(341.8)" xlink:href="#New_Gradient_Swatch_copy_35"/><linearGradient id="New_Gradient_Swatch_copy_42-4" x1="110.5" y1="69.87" x2="153.12" y2="69.87" xlink:href="#New_Gradient_Swatch_copy_42"/><linearGradient id="New_Gradient_Swatch_copy_23" x1="107.48" y1="62.95" x2="156.1" y2="62.95" gradientTransform="translate(-54.82)" gradientUnits="userSpaceOnUse"><stop offset="0.01" stop-color="#c1a1d5"/><stop offset="0.05" stop-color="#c8abda"/><stop offset="0.11" stop-color="#dac6e6"/><stop offset="0.2" stop-color="#f7f2f9"/><stop offset="0.22" stop-color="#fff"/><stop offset="0.25" stop-color="#f9f5fb"/><stop offset="0.3" stop-color="#e9dbf2"/><stop offset="0.36" stop-color="#d1b4e3"/><stop offset="0.43" stop-color="#b395d6"/><stop offset="0.49" stop-color="#9c7dcb"/><stop offset="0.56" stop-color="#8e6ec5"/><stop offset="0.61" stop-color="#8969c3"/><stop offset="0.76" stop-color="#9471c6"/><stop offset="1" stop-color="#b086cc"/></linearGradient><linearGradient id="New_Gradient_Swatch_copy_35-10" x1="5306.07" y1="18.59" x2="5345.19" y2="60.55" xlink:href="#New_Gradient_Swatch_copy_35"/><radialGradient id="Radial_Gradient_1-4" cx="69.2" cy="62.09" r="18.21" xlink:href="#Radial_Gradient_1"/><radialGradient id="radial-gradient" cx="902.49" cy="-7145.49" r="10.58" gradientTransform="translate(-986.84 4351.68) scale(1.18 0.6)" gradientUnits="userSpaceOnUse"><stop offset="0.19" stop-color="#5f5c5d"/><stop offset="1" stop-color="#fff"/></radialGradient><linearGradient id="New_Gradient_Swatch_copy_23-2" x1="122.16" y1="49.76" x2="141.61" y2="49.76" xlink:href="#New_Gradient_Swatch_copy_23"/><linearGradient id="New_Gradient_Swatch_copy_35-11" x1="5323.46" y1="32.52" x2="5339.12" y2="49.31" xlink:href="#New_Gradient_Swatch_copy_35"/><linearGradient id="New_Gradient_Swatch_copy_7" x1="5329.92" y1="39.54" x2="5336.87" y2="46.99" gradientTransform="matrix(-1, 0, 0, 1, 5412.19, 0)" gradientUnits="userSpaceOnUse"><stop offset="0.04" stop-color="#138bbd"/><stop offset="0.23" stop-color="#169ac7"/><stop offset="0.59" stop-color="#1fc3df"/><stop offset="1" stop-color="#2af6ff"/></linearGradient><radialGradient id="Radial_Gradient_1-5" cx="73.95" cy="49.93" r="7.29" xlink:href="#Radial_Gradient_1"/><linearGradient id="New_Gradient_Swatch_copy_35-12" x1="-215.01" y1="83.14" x2="-199.6" y2="78.52" gradientTransform="translate(341.8)" xlink:href="#New_Gradient_Swatch_copy_35"/><linearGradient id="New_Gradient_Swatch_copy_35-13" x1="-282.98" y1="85.49" x2="-184.56" y2="63.43" gradientTransform="translate(341.8)" xlink:href="#New_Gradient_Swatch_copy_35"/><linearGradient id="New_Gradient_Swatch_copy_35-14" x1="-222.57" y1="54.86" x2="-231.74" y2="72.34" gradientTransform="translate(341.8)" xlink:href="#New_Gradient_Swatch_copy_35"/><linearGradient id="New_Gradient_Swatch_copy_23-3" x1="175.07" y1="76.09" x2="184.33" y2="76.09" xlink:href="#New_Gradient_Swatch_copy_23"/><linearGradient id="New_Gradient_Swatch_copy_35-15" x1="5281.76" y1="65.53" x2="5289.21" y2="73.52" xlink:href="#New_Gradient_Swatch_copy_35"/><radialGradient id="Radial_Gradient_1-6" cx="123.4" cy="73.81" r="3.47" xlink:href="#Radial_Gradient_1"/><linearGradient id="New_Gradient_Swatch_copy_23-4" x1="177.24" y1="70.01" x2="182.19" y2="70.01" xlink:href="#New_Gradient_Swatch_copy_23"/><linearGradient id="New_Gradient_Swatch_copy_35-16" x1="5284.33" y1="64.37" x2="5288.31" y2="68.64" xlink:href="#New_Gradient_Swatch_copy_35"/><radialGradient id="Radial_Gradient_1-7" cx="124.1" cy="68.8" r="1.85" xlink:href="#Radial_Gradient_1"/><linearGradient id="New_Gradient_Swatch_copy_42-5" x1="10251.67" y1="86.94" x2="10261.94" y2="86.94" gradientTransform="matrix(-1, 0, 0, 1, 10286.26, 0)" xlink:href="#New_Gradient_Swatch_copy_42"/><linearGradient id="New_Gradient_Swatch_copy_35-17" x1="-4795.95" y1="75.23" x2="-4787.68" y2="84.1" gradientTransform="translate(4819.25)" xlink:href="#New_Gradient_Swatch_copy_35"/><radialGradient id="Radial_Gradient_1-8" cx="10200.34" cy="84.42" r="3.85" gradientTransform="matrix(-1, 0, 0, 1, 10231.44, 0)" xlink:href="#Radial_Gradient_1"/><linearGradient id="New_Gradient_Swatch_copy_35-18" x1="9862.09" y1="83.14" x2="9877.51" y2="78.52" gradientTransform="matrix(-1, 0, 0, 1, 9889.64, 0)" xlink:href="#New_Gradient_Swatch_copy_35"/><linearGradient id="New_Gradient_Swatch_copy_35-19" x1="9794.12" y1="85.49" x2="9892.54" y2="63.43" gradientTransform="matrix(-1, 0, 0, 1, 9889.64, 0)" xlink:href="#New_Gradient_Swatch_copy_35"/><linearGradient id="New_Gradient_Swatch_copy_35-20" x1="9854.54" y1="54.86" x2="9845.36" y2="72.34" gradientTransform="matrix(-1, 0, 0, 1, 9889.64, 0)" xlink:href="#New_Gradient_Swatch_copy_35"/><linearGradient id="New_Gradient_Swatch_copy_23-5" x1="10252.18" y1="76.09" x2="10261.43" y2="76.09" gradientTransform="matrix(-1, 0, 0, 1, 10286.26, 0)" xlink:href="#New_Gradient_Swatch_copy_23"/><linearGradient id="New_Gradient_Swatch_copy_35-21" x1="-4795.34" y1="65.53" x2="-4787.89" y2="73.52" gradientTransform="translate(4819.25)" xlink:href="#New_Gradient_Swatch_copy_35"/><radialGradient id="Radial_Gradient_1-9" cx="10200.5" cy="73.81" r="3.47" gradientTransform="matrix(-1, 0, 0, 1, 10231.44, 0)" xlink:href="#Radial_Gradient_1"/><linearGradient id="New_Gradient_Swatch_copy_23-6" x1="10254.35" y1="70.01" x2="10259.29" y2="70.01" gradientTransform="matrix(-1, 0, 0, 1, 10286.26, 0)" xlink:href="#New_Gradient_Swatch_copy_23"/><linearGradient id="New_Gradient_Swatch_copy_35-22" x1="-4792.77" y1="64.37" x2="-4788.79" y2="68.64" gradientTransform="translate(4819.25)" xlink:href="#New_Gradient_Swatch_copy_35"/><radialGradient id="Radial_Gradient_1-10" cx="10201.21" cy="68.8" r="1.85" gradientTransform="matrix(-1, 0, 0, 1, 10231.44, 0)" xlink:href="#Radial_Gradient_1"/><linearGradient id="New_Gradient_Swatch_copy_23-7" x1="175.07" y1="22.2" x2="184.33" y2="22.2" xlink:href="#New_Gradient_Swatch_copy_23"/><linearGradient id="New_Gradient_Swatch_copy_35-23" x1="5281.76" y1="11.65" x2="5289.21" y2="19.64" xlink:href="#New_Gradient_Swatch_copy_35"/><radialGradient id="Radial_Gradient_1-11" cx="123.4" cy="19.93" r="3.47" xlink:href="#Radial_Gradient_1"/><linearGradient id="New_Gradient_Swatch_copy_23-8" x1="177.24" y1="16.13" x2="182.19" y2="16.13" xlink:href="#New_Gradient_Swatch_copy_23"/><linearGradient id="New_Gradient_Swatch_copy_35-24" x1="5284.33" y1="10.49" x2="5288.31" y2="14.76" xlink:href="#New_Gradient_Swatch_copy_35"/><radialGradient id="Radial_Gradient_1-12" cx="124.1" cy="14.92" r="1.85" xlink:href="#Radial_Gradient_1"/><linearGradient id="New_Gradient_Swatch_copy_23-9" x1="10252.18" y1="22.2" x2="10261.43" y2="22.2" gradientTransform="matrix(-1, 0, 0, 1, 10286.26, 0)" xlink:href="#New_Gradient_Swatch_copy_23"/><linearGradient id="New_Gradient_Swatch_copy_35-25" x1="-4795.34" y1="11.65" x2="-4787.89" y2="19.64" gradientTransform="translate(4819.25)" xlink:href="#New_Gradient_Swatch_copy_35"/><radialGradient id="Radial_Gradient_1-13" cx="10200.5" cy="19.93" r="3.47" gradientTransform="matrix(-1, 0, 0, 1, 10231.44, 0)" xlink:href="#Radial_Gradient_1"/><linearGradient id="New_Gradient_Swatch_copy_23-10" x1="10254.35" y1="16.13" x2="10259.29" y2="16.13" gradientTransform="matrix(-1, 0, 0, 1, 10286.26, 0)" xlink:href="#New_Gradient_Swatch_copy_23"/><linearGradient id="New_Gradient_Swatch_copy_35-26" x1="-4792.77" y1="10.49" x2="-4788.79" y2="14.76" gradientTransform="translate(4819.25)" xlink:href="#New_Gradient_Swatch_copy_35"/><radialGradient id="Radial_Gradient_1-14" cx="10201.21" cy="14.92" r="1.85" gradientTransform="matrix(-1, 0, 0, 1, 10231.44, 0)" xlink:href="#Radial_Gradient_1"/><radialGradient id="radial-gradient-2" cx="40.68" cy="-329.05" r="22.02" gradientTransform="translate(38.73 394.2) scale(0.96 0.93)" gradientUnits="userSpaceOnUse"><stop offset="0" stop-color="#c7eeff"/><stop offset="1" stop-color="#2d00d4" stop-opacity="0"/></radialGradient><radialGradient id="radial-gradient-3" cx="40.68" cy="-329.05" r="11.19" xlink:href="#radial-gradient-2"/><radialGradient id="radial-gradient-4" cx="40.68" cy="-329.05" r="6.96" xlink:href="#radial-gradient-2"/></defs><title>drone_1</title><g class="cls-1"><g id="Layer_2" data-name="Layer 2"><g id="Layer_1-2" data-name="Layer 1"><path class="cls-2" d="M130.13,27.9H119.69v7.29c0,1.68,2.34,3,5.22,3s5.22-1.36,5.22-3v0h0Z"/><path class="cls-3" d="M119.69,27.92c0,1.68,2.34,3,5.22,3s5.22-1.36,5.22-3-2.34-3-5.22-3S119.69,26.24,119.69,27.92Z"/><path class="cls-4" d="M124.91,31c-2.85,0-5.17-1.33-5.22-3V28c0,1.67,2.34,3,5.22,3s5.22-1.37,5.22-3v0C130.08,29.62,127.76,31,124.91,31Z"/><path class="cls-5" d="M24.21,27.9H34.65v7.29c0,1.68-2.34,3-5.22,3s-5.22-1.36-5.22-3v0h0Z"/><path class="cls-6" d="M34.65,27.92c0,1.68-2.34,3-5.22,3s-5.22-1.36-5.22-3,2.34-3,5.22-3S34.65,26.24,34.65,27.92Z"/><path class="cls-7" d="M29.43,31c2.85,0,5.16-1.33,5.21-3a.35.35,0,0,1,0,.06c0,1.67-2.34,3-5.22,3s-5.22-1.37-5.22-3v0C24.26,29.62,26.58,31,29.43,31Z"/><path class="cls-8" d="M130.13,81.78H119.69v7.29c0,1.68,2.34,3,5.22,3s5.22-1.36,5.22-3v0h0Z"/><path class="cls-9" d="M119.69,81.8c0,1.68,2.34,3,5.22,3s5.22-1.36,5.22-3-2.34-3-5.22-3S119.69,80.12,119.69,81.8Z"/><path class="cls-10" d="M124.91,84.83c-2.85,0-5.17-1.33-5.22-3v.06c0,1.68,2.34,3,5.22,3s5.22-1.36,5.22-3v0C130.08,83.5,127.76,84.83,124.91,84.83Z"/><polygon class="cls-11" points="96.25 45 96.25 50.08 89.59 46.22 89.59 41.09 96.25 45"/><polygon class="cls-12" points="96.24 45 96.24 50.08 129.56 28.77 129.56 25.61 96.24 45"/><polygon class="cls-13" points="129.56 25.61 96.24 45 89.59 41.09 122.93 21.73 129.56 25.61"/><polygon class="cls-14" points="58.24 45 58.24 50.08 64.89 46.22 64.89 41.09 58.24 45"/><polygon class="cls-15" points="58.24 45 58.24 50.08 24.93 28.77 24.93 25.61 58.24 45"/><polygon class="cls-16" points="24.93 25.61 58.24 45 64.89 41.09 31.56 21.73 24.93 25.61"/><path class="cls-17" d="M98.78,58.16H55.47V69c0,7,9.7,12.61,21.66,12.61S98.78,75.94,98.78,69c0,0,0-.11,0-.17h0Z"/><path class="cls-18" d="M101.82,49.59H52.43V61.93c0,7.94,11.06,14.38,24.7,14.38s24.69-6.44,24.69-14.38a1.27,1.27,0,0,0,0-.2h0Z"/><ellipse class="cls-19" cx="77.13" cy="49.69" rx="24.7" ry="14.38"/><path class="cls-20" d="M77.13,64c-13.5,0-24.45-6.3-24.69-14.13,0,.09,0,.17,0,.26,0,7.94,11.06,14.38,24.7,14.38s24.69-6.44,24.69-14.38c0-.09,0-.17,0-.26C101.57,57.72,90.62,64,77.13,64Z"/><ellipse class="cls-21" cx="79" cy="48.67" rx="12.49" ry="6.37"/><path class="cls-22" d="M87,44.93H67.24v3.92c0,3.17,4.43,5.75,9.89,5.75S87,52,87,48.85v-.08h0Z"/><path class="cls-23" d="M67.24,45c0,3.17,4.43,5.75,9.89,5.75S87,48.14,87,45s-4.43-5.76-9.88-5.76S67.24,41.79,67.24,45Z"/><path class="cls-24" d="M72.74,45.07c0,1.41,2,2.55,4.39,2.55s4.38-1.14,4.38-2.55-2-2.56-4.38-2.56S72.74,43.66,72.74,45.07Z"/><path class="cls-25" d="M77.13,50.7c-5.4,0-9.79-2.52-9.88-5.65,0,0,0,.06,0,.1,0,3.18,4.43,5.75,9.89,5.75S87,48.33,87,45.15a.31.31,0,0,0,0-.1C86.91,48.18,82.52,50.7,77.13,50.7Z"/><polygon class="cls-26" points="124.64 83.19 124.64 86.29 131.29 82.43 131.29 79.28 124.64 83.19"/><polygon class="cls-27" points="124.64 83.19 124.64 86.29 90.13 70.02 90.13 62.92 124.64 83.19"/><polygon class="cls-28" points="90.13 62.92 124.64 83.19 131.29 79.28 96.76 59.03 90.13 62.92"/><path class="cls-29" d="M129.61,71.43h-9.4V78c0,1.51,2.1,2.74,4.7,2.74s4.7-1.23,4.7-2.74V71.43Z"/><ellipse class="cls-30" cx="124.91" cy="71.45" rx="4.7" ry="2.74"/><path class="cls-31" d="M124.91,74.18c-2.57,0-4.66-1.2-4.7-2.69v0c0,1.53,2.1,2.76,4.7,2.76s4.7-1.23,4.7-2.74v-.05C129.57,73,127.48,74.18,124.91,74.18Z"/><path class="cls-32" d="M127.42,67.53h-5V71c0,.81,1.12,1.46,2.51,1.46s2.51-.65,2.51-1.46v0h0Z"/><path class="cls-33" d="M122.4,67.54c0,.81,1.12,1.46,2.51,1.46s2.51-.65,2.51-1.46-1.12-1.47-2.51-1.47S122.4,66.73,122.4,67.54Z"/><path class="cls-34" d="M124.91,69c-1.37,0-2.49-.65-2.51-1.44v0c0,.81,1.12,1.47,2.51,1.47s2.51-.66,2.51-1.47v0C127.4,68.35,126.28,69,124.91,69Z"/><g class="cls-35"><path class="cls-36" d="M95.48,71c0-9.47,13.18-17.14,29.43-17.14,8.26,0,15.72,2,21.06,5.19L104.13,83.15C98.79,80.05,95.48,75.76,95.48,71Z"/><path class="cls-37" d="M154.34,71c0,9.46-13.18,17.13-29.43,17.13-8.11,0-15.46-1.91-20.78-5L146,59.07C151.14,62.15,154.34,66.37,154.34,71Z"/></g><g class="cls-35"><path class="cls-36" d="M154.34,71c0-9.47-13.18-17.14-29.43-17.14-8.26,0-15.72,2-21.06,5.19l41.84,24.08C151,80.05,154.34,75.76,154.34,71Z"/><path class="cls-37" d="M95.48,71c0,9.46,13.18,17.13,29.43,17.13,8.11,0,15.46-1.91,20.78-5L103.85,59.07C98.68,62.15,95.48,66.37,95.48,71Z"/></g><path class="cls-38" d="M24.21,81.78H34.65v7.29c0,1.68-2.34,3-5.22,3s-5.22-1.36-5.22-3v0h0Z"/><path class="cls-39" d="M34.65,81.8c0,1.68-2.34,3-5.22,3s-5.22-1.36-5.22-3,2.34-3,5.22-3S34.65,80.12,34.65,81.8Z"/><path class="cls-40" d="M29.43,84.83c2.85,0,5.16-1.33,5.21-3a.35.35,0,0,1,0,.06c0,1.68-2.34,3-5.22,3s-5.22-1.36-5.22-3v0C24.26,83.5,26.58,84.83,29.43,84.83Z"/><polygon class="cls-41" points="29.7 83.19 29.7 86.29 23.05 82.43 23.05 79.28 29.7 83.19"/><polygon class="cls-42" points="29.69 83.19 29.69 86.29 64.2 70.02 64.2 62.92 29.69 83.19"/><polygon class="cls-43" points="64.2 62.92 29.69 83.19 23.05 79.28 57.58 59.03 64.2 62.92"/><path class="cls-44" d="M24.72,71.43h9.41V78c0,1.51-2.1,2.74-4.7,2.74S24.72,79.51,24.72,78V71.43Z"/><ellipse class="cls-45" cx="29.43" cy="71.45" rx="4.7" ry="2.74"/><path class="cls-46" d="M29.43,74.18c2.57,0,4.65-1.2,4.7-2.69v0c0,1.53-2.11,2.76-4.7,2.76s-4.71-1.23-4.71-2.74v-.05C24.77,73,26.86,74.18,29.43,74.18Z"/><path class="cls-47" d="M26.91,67.53h5V71c0,.81-1.12,1.46-2.51,1.46s-2.52-.65-2.52-1.46v0h0Z"/><path class="cls-48" d="M31.94,67.54c0,.81-1.12,1.46-2.51,1.46s-2.52-.65-2.52-1.46,1.13-1.47,2.52-1.47S31.94,66.73,31.94,67.54Z"/><path class="cls-49" d="M29.43,69c1.37,0,2.48-.65,2.51-1.44v0c0,.81-1.12,1.47-2.51,1.47s-2.51-.66-2.51-1.47v0C26.94,68.35,28.05,69,29.43,69Z"/><g class="cls-35"><path class="cls-36" d="M58.86,71c0-9.47-13.18-17.14-29.43-17.14-8.27,0-15.72,2-21.07,5.19L50.21,83.15C55.55,80.05,58.86,75.76,58.86,71Z"/><path class="cls-37" d="M0,71c0,9.46,13.18,17.13,29.43,17.13,8.11,0,15.46-1.91,20.78-5L8.36,59.07C3.19,62.15,0,66.37,0,71Z"/></g><g class="cls-35"><path class="cls-36" d="M0,71c0-9.47,13.17-17.14,29.43-17.14,8.26,0,15.72,2,21.06,5.19L8.65,83.15C3.31,80.05,0,75.76,0,71Z"/><path class="cls-37" d="M58.86,71c0,9.46-13.18,17.13-29.43,17.13-8.11,0-15.46-1.91-20.78-5L50.49,59.07C55.66,62.15,58.86,66.37,58.86,71Z"/></g><path class="cls-50" d="M129.61,17.55h-9.4v6.57c0,1.51,2.1,2.74,4.7,2.74s4.7-1.23,4.7-2.74v0h0Z"/><path class="cls-51" d="M120.21,17.57c0,1.51,2.1,2.74,4.7,2.74s4.7-1.23,4.7-2.74-2.1-2.74-4.7-2.74S120.21,16.06,120.21,17.57Z"/><path class="cls-52" d="M124.91,20.3c-2.57,0-4.66-1.2-4.7-2.69v0c0,1.53,2.1,2.75,4.7,2.75s4.7-1.22,4.7-2.73v-.05C129.57,19.1,127.48,20.3,124.91,20.3Z"/><path class="cls-53" d="M127.42,13.65h-5v3.51c0,.8,1.12,1.46,2.51,1.46s2.51-.66,2.51-1.46v0h0Z"/><path class="cls-54" d="M122.4,13.66c0,.8,1.12,1.46,2.51,1.46s2.51-.66,2.51-1.46-1.12-1.47-2.51-1.47S122.4,12.85,122.4,13.66Z"/><path class="cls-55" d="M124.91,15.11c-1.37,0-2.49-.64-2.51-1.43v0c0,.81,1.12,1.47,2.51,1.47s2.51-.66,2.51-1.47v0C127.4,14.47,126.28,15.11,124.91,15.11Z"/><g class="cls-35"><path class="cls-36" d="M95.48,17.14C95.48,7.67,108.66,0,124.91,0c8.26,0,15.72,2,21.06,5.18L104.13,29.27C98.79,26.17,95.48,21.88,95.48,17.14Z"/><path class="cls-37" d="M154.34,17.14c0,9.46-13.18,17.13-29.43,17.13-8.11,0-15.46-1.91-20.78-5L146,5.18C151.14,8.27,154.34,12.48,154.34,17.14Z"/></g><g class="cls-35"><path class="cls-36" d="M154.34,17.14C154.34,7.67,141.16,0,124.91,0c-8.26,0-15.72,2-21.06,5.18l41.84,24.09C151,26.17,154.34,21.88,154.34,17.14Z"/><path class="cls-37" d="M95.48,17.14c0,9.46,13.18,17.13,29.43,17.13,8.11,0,15.46-1.91,20.78-5L103.85,5.18C98.68,8.27,95.48,12.48,95.48,17.14Z"/></g><path class="cls-56" d="M24.72,17.55h9.41v6.57c0,1.51-2.1,2.74-4.7,2.74s-4.71-1.23-4.71-2.74v0h0Z"/><path class="cls-57" d="M34.13,17.57c0,1.51-2.1,2.74-4.7,2.74s-4.71-1.23-4.71-2.74,2.11-2.74,4.71-2.74S34.13,16.06,34.13,17.57Z"/><path class="cls-58" d="M29.43,20.3c2.57,0,4.65-1.2,4.7-2.69v0c0,1.53-2.11,2.75-4.7,2.75s-4.71-1.22-4.71-2.73v-.05C24.77,19.1,26.86,20.3,29.43,20.3Z"/><path class="cls-59" d="M26.91,13.65h5v3.51c0,.8-1.12,1.46-2.51,1.46s-2.52-.66-2.52-1.46v0h0Z"/><path class="cls-60" d="M31.94,13.66c0,.8-1.12,1.46-2.51,1.46s-2.52-.66-2.52-1.46,1.13-1.47,2.52-1.47S31.94,12.85,31.94,13.66Z"/><path class="cls-61" d="M29.43,15.11c1.37,0,2.48-.64,2.51-1.43v0c0,.81-1.12,1.47-2.51,1.47s-2.51-.66-2.51-1.47v0C26.94,14.47,28.05,15.11,29.43,15.11Z"/><g class="cls-35"><path class="cls-36" d="M58.86,17.14C58.86,7.67,45.68,0,29.43,0,21.16,0,13.71,2,8.36,5.18L50.21,29.27C55.55,26.17,58.86,21.88,58.86,17.14Z"/><path class="cls-37" d="M0,17.14C0,26.6,13.18,34.27,29.43,34.27c8.11,0,15.46-1.91,20.78-5L8.36,5.18C3.19,8.27,0,12.48,0,17.14Z"/></g><g class="cls-35"><path class="cls-36" d="M0,17.14C0,7.67,13.17,0,29.43,0c8.26,0,15.72,2,21.06,5.18L8.65,29.27C3.31,26.17,0,21.88,0,17.14Z"/><path class="cls-37" d="M58.86,17.14c0,9.46-13.18,17.13-29.43,17.13-8.11,0-15.46-1.91-20.78-5L50.49,5.18C55.66,8.27,58.86,12.48,58.86,17.14Z"/></g><ellipse class="cls-62" cx="77.87" cy="87.59" rx="21.19" ry="20.52"/><path class="cls-63" d="M88.64,87.59A10.78,10.78,0,1,1,77.87,77.17,10.6,10.6,0,0,1,88.64,87.59Z"/><path class="cls-64" d="M84.56,87.59a6.69,6.69,0,1,1-6.69-6.48A6.58,6.58,0,0,1,84.56,87.59Z"/></g></g></g></svg>