<svg xmlns="http://www.w3.org/2000/svg" xmlns:xlink="http://www.w3.org/1999/xlink" viewBox="0 0 134.29 116.27"><defs><style>.cls-1{isolation:isolate;}.cls-2{fill:url(#New_Gradient_Swatch_copy_23);}.cls-3{fill:url(#New_Gradient_Swatch_copy_35);}.cls-4{fill:url(#New_Gradient_Swatch_copy_23-2);}.cls-13,.cls-19,.cls-22,.cls-43,.cls-44,.cls-47,.cls-5,.cls-51,.cls-54,.cls-58,.cls-61,.cls-65,.cls-68,.cls-7,.cls-71,.cls-72,.cls-73,.cls-74{mix-blend-mode:color-dodge;}.cls-5{fill:url(#Radial_Gradient_1);}.cls-6{fill:url(#New_Gradient_Swatch_copy_35-2);}.cls-7{fill:url(#radial-gradient);}.cls-8{fill:url(#New_Gradient_Swatch_copy_23-3);}.cls-9{fill:url(#New_Gradient_Swatch_copy_23-4);}.cls-10{fill:url(#New_Gradient_Swatch_copy_35-3);}.cls-11{fill:url(#New_Gradient_Swatch_copy_35-4);}.cls-12,.cls-28,.cls-39,.cls-42,.cls-48{mix-blend-mode:multiply;}.cls-12{fill:url(#linear-gradient);}.cls-13{fill:url(#Radial_Gradient_1-2);}.cls-14{fill:url(#New_Gradient_Swatch_copy_35-5);}.cls-15{fill:url(#New_Gradient_Swatch_copy_35-6);}.cls-16{fill:url(#New_Gradient_Swatch_copy_35-7);}.cls-17{fill:url(#New_Gradient_Swatch_copy_35-8);}.cls-18{fill:url(#New_Gradient_Swatch_copy_34);}.cls-19{fill:url(#Radial_Gradient_1-3);}.cls-20{fill:url(#New_Gradient_Swatch_copy_35-9);}.cls-21{fill:url(#New_Gradient_Swatch_copy_35-10);}.cls-22{fill:url(#Radial_Gradient_1-4);}.cls-23{fill:url(#linear-gradient-2);}.cls-24{fill:url(#New_Gradient_Swatch_copy_23-5);}.cls-25{fill:url(#New_Gradient_Swatch_copy_23-6);}.cls-26{fill:url(#New_Gradient_Swatch_copy_35-11);}.cls-27{fill:url(#New_Gradient_Swatch_copy_23-7);}.cls-28{fill:url(#linear-gradient-3);}.cls-29{fill:url(#New_Gradient_Swatch_copy_35-12);}.cls-30{fill:#e6e7e8;mix-blend-mode:screen;}.cls-31{fill:url(#New_Gradient_Swatch_copy_35-13);}.cls-32{fill:url(#New_Gradient_Swatch_copy_35-14);}.cls-33{fill:url(#New_Gradient_Swatch_copy_35-15);}.cls-34{fill:url(#New_Gradient_Swatch_copy_35-16);}.cls-35{fill:url(#New_Gradient_Swatch_copy_35-17);}.cls-36{fill:url(#New_Gradient_Swatch_copy_35-18);}.cls-37{fill:url(#linear-gradient-4);}.cls-38{fill:url(#New_Gradient_Swatch_copy_23-8);}.cls-39{fill:url(#linear-gradient-5);}.cls-40{fill:url(#New_Gradient_Swatch_copy_35-19);}.cls-41{fill:url(#New_Gradient_Swatch_copy_23-9);}.cls-42{fill:url(#linear-gradient-6);}.cls-43{fill:url(#radial-gradient-2);}.cls-44{fill:url(#radial-gradient-3);}.cls-45{fill:url(#New_Gradient_Swatch_copy_35-20);}.cls-46{fill:url(#New_Gradient_Swatch_copy_35-21);}.cls-47{fill:url(#Radial_Gradient_1-5);}.cls-48{fill:#b086cc;}.cls-49{fill:url(#New_Gradient_Swatch_copy_23-10);}.cls-50{fill:url(#New_Gradient_Swatch_copy_35-22);}.cls-51{fill:url(#radial-gradient-4);}.cls-52{fill:url(#New_Gradient_Swatch_copy_23-11);}.cls-53{fill:url(#New_Gradient_Swatch_copy_35-23);}.cls-54{fill:url(#radial-gradient-5);}.cls-55{fill:url(#New_Gradient_Swatch_copy_35-24);}.cls-56{fill:url(#New_Gradient_Swatch_copy_35-25);}.cls-57{fill:url(#New_Gradient_Swatch_copy_35-26);}.cls-58{fill:url(#Radial_Gradient_1-6);}.cls-59{fill:url(#New_Gradient_Swatch_copy_35-27);}.cls-60{fill:url(#New_Gradient_Swatch_copy_34-2);}.cls-61{fill:url(#Radial_Gradient_1-7);}.cls-62{fill:#45108a;}.cls-63{fill:url(#New_Gradient_Swatch_copy_23-12);}.cls-64{fill:url(#New_Gradient_Swatch_copy_35-28);}.cls-65{fill:url(#radial-gradient-6);}.cls-66{fill:url(#New_Gradient_Swatch_copy_23-13);}.cls-67{fill:url(#New_Gradient_Swatch_copy_35-29);}.cls-68{fill:url(#radial-gradient-7);}.cls-69{fill:url(#New_Gradient_Swatch_copy_23-14);}.cls-70{fill:url(#New_Gradient_Swatch_copy_35-30);}.cls-71{fill:url(#radial-gradient-8);}.cls-72{opacity:0.42;fill:url(#radial-gradient-9);}.cls-73{fill:url(#radial-gradient-10);}.cls-74{opacity:0.74;fill:url(#radial-gradient-11);}</style><linearGradient id="New_Gradient_Swatch_copy_23" x1="-317.35" y1="84.45" x2="-271.88" y2="84.45" gradientTransform="matrix(-0.94, 0.34, 0.34, 0.94, -227.02, 123.61)" gradientUnits="userSpaceOnUse"><stop offset="0.01" stop-color="#c1a1d5"/><stop offset="0.05" stop-color="#c8abda"/><stop offset="0.11" stop-color="#dac6e6"/><stop offset="0.2" stop-color="#f7f2f9"/><stop offset="0.22" stop-color="#fff"/><stop offset="0.25" stop-color="#f9f5fb"/><stop offset="0.3" stop-color="#e9dbf2"/><stop offset="0.36" stop-color="#d1b4e3"/><stop offset="0.43" stop-color="#b395d6"/><stop offset="0.49" stop-color="#9c7dcb"/><stop offset="0.56" stop-color="#8e6ec5"/><stop offset="0.61" stop-color="#8969c3"/><stop offset="0.76" stop-color="#9471c6"/><stop offset="1" stop-color="#b086cc"/></linearGradient><linearGradient id="New_Gradient_Swatch_copy_35" x1="-321.59" y1="46.67" x2="-285" y2="85.9" gradientTransform="matrix(-1, 0, 0, 1, -218.87, 18.33)" gradientUnits="userSpaceOnUse"><stop offset="0" stop-color="#9f79c8"/><stop offset="0.14" stop-color="#a580cb"/><stop offset="0.33" stop-color="#b492d3"/><stop offset="0.55" stop-color="#cdb0e1"/><stop offset="0.58" stop-color="#d1b4e3"/><stop offset="0.76" stop-color="#dbc4e9"/><stop offset="1" stop-color="#ebdef3"/></linearGradient><linearGradient id="New_Gradient_Swatch_copy_23-2" x1="-315.42" y1="65.6" x2="-273.79" y2="65.6" xlink:href="#New_Gradient_Swatch_copy_23"/><radialGradient id="Radial_Gradient_1" cx="-294.47" cy="45.44" r="17.31" gradientTransform="matrix(-1, 0, 0, 1, -229.24, 20.16)" gradientUnits="userSpaceOnUse"><stop offset="0" stop-color="#fff"/><stop offset="1"/></radialGradient><linearGradient id="New_Gradient_Swatch_copy_35-2" x1="-319.3" y1="18.22" x2="-285.8" y2="54.15" gradientTransform="matrix(-1, 0, 0, 1, -229.44, 20.19)" xlink:href="#New_Gradient_Swatch_copy_35"/><radialGradient id="radial-gradient" cx="7480.96" cy="317.11" r="7.07" gradientTransform="matrix(-0.58, -1.56, -0.42, 0.16, 4572.8, 11680.95)" gradientUnits="userSpaceOnUse"><stop offset="0" stop-color="#dc3daa"/><stop offset="0.07" stop-color="#bd3492"/><stop offset="0.2" stop-color="#8b276b"/><stop offset="0.33" stop-color="#601b4a"/><stop offset="0.46" stop-color="#3e1130"/><stop offset="0.59" stop-color="#230a1b"/><stop offset="0.72" stop-color="#0f040c"/><stop offset="0.86" stop-color="#040103"/><stop offset="1"/></radialGradient><linearGradient id="New_Gradient_Swatch_copy_23-3" x1="-257.22" y1="-27.71" x2="-252.01" y2="-19.06" xlink:href="#New_Gradient_Swatch_copy_23"/><linearGradient id="New_Gradient_Swatch_copy_23-4" x1="-262.01" y1="-26.92" x2="-254.9" y2="-15.1" xlink:href="#New_Gradient_Swatch_copy_23"/><linearGradient id="New_Gradient_Swatch_copy_35-3" x1="-317.33" y1="63.7" x2="-282.3" y2="-24.73" gradientTransform="matrix(-0.94, 0.34, 0.34, 0.94, -227.02, 123.61)" xlink:href="#New_Gradient_Swatch_copy_35"/><linearGradient id="New_Gradient_Swatch_copy_35-4" x1="-4354.19" y1="1945.46" x2="-4300.8" y2="1929.48" gradientTransform="matrix(-0.73, 0.29, 0.77, 1.06, -4622.38, -759.03)" xlink:href="#New_Gradient_Swatch_copy_35"/><linearGradient id="linear-gradient" x1="-294.1" y1="4.78" x2="-296.91" y2="40.55" gradientTransform="matrix(-0.94, 0.34, 0.34, 0.94, -227.02, 123.61)" gradientUnits="userSpaceOnUse"><stop offset="0.01" stop-color="#c1a1d5"/><stop offset="0.13" stop-color="#c8abda"/><stop offset="0.33" stop-color="#dac6e6"/><stop offset="0.6" stop-color="#f7f2f9"/><stop offset="0.67" stop-color="#fff"/></linearGradient><radialGradient id="Radial_Gradient_1-2" cx="-305.57" cy="-26.63" r="21.69" gradientTransform="matrix(-0.94, 0.34, 0.34, 0.94, -227.02, 123.61)" xlink:href="#Radial_Gradient_1"/><linearGradient id="New_Gradient_Swatch_copy_35-5" x1="-290.37" y1="44.73" x2="-260.34" y2="35.73" gradientTransform="matrix(-0.94, 0.34, 0.34, 0.94, -227.02, 123.61)" xlink:href="#New_Gradient_Swatch_copy_35"/><linearGradient id="New_Gradient_Swatch_copy_35-6" x1="-318.8" y1="48.36" x2="-279.5" y2="39.56" gradientTransform="matrix(-0.94, 0.34, 0.34, 0.94, -227.02, 123.61)" xlink:href="#New_Gradient_Swatch_copy_35"/><linearGradient id="New_Gradient_Swatch_copy_35-7" x1="-284.14" y1="16.39" x2="-297.12" y2="41.13" gradientTransform="matrix(-0.94, 0.34, 0.34, 0.94, -227.02, 123.61)" xlink:href="#New_Gradient_Swatch_copy_35"/><linearGradient id="New_Gradient_Swatch_copy_35-8" x1="6269.27" y1="13.24" x2="6359.44" y2="-13.76" gradientTransform="translate(-5820.28 2159.39) rotate(-20)" xlink:href="#New_Gradient_Swatch_copy_35"/><linearGradient id="New_Gradient_Swatch_copy_34" x1="6268.37" y1="-19.73" x2="6301.76" y2="37.32" gradientTransform="translate(-5820.28 2159.39) rotate(-20)" gradientUnits="userSpaceOnUse"><stop offset="0" stop-color="#9f79c8"/><stop offset="0.14" stop-color="#a27dca"/><stop offset="0.27" stop-color="#ac88cf"/><stop offset="0.4" stop-color="#bc9bd7"/><stop offset="0.52" stop-color="#d1b4e3"/><stop offset="0.65" stop-color="#dbc4e9"/><stop offset="0.9" stop-color="#f4edf8"/><stop offset="1" stop-color="#fff"/></linearGradient><radialGradient id="Radial_Gradient_1-3" cx="6289.53" cy="9.16" r="24.69" gradientTransform="translate(-5820.28 2159.39) rotate(-20)" xlink:href="#Radial_Gradient_1"/><linearGradient id="New_Gradient_Swatch_copy_35-9" x1="-366.36" y1="50.15" x2="-355.48" y2="22.68" gradientTransform="matrix(-0.94, 0.34, 0.34, 0.94, -227.02, 123.61)" xlink:href="#New_Gradient_Swatch_copy_35"/><linearGradient id="New_Gradient_Swatch_copy_35-10" x1="-4421.8" y1="1964.14" x2="-4399.99" y2="1957.61" gradientTransform="matrix(-0.73, 0.29, 0.77, 1.06, -4622.38, -759.03)" xlink:href="#New_Gradient_Swatch_copy_35"/><radialGradient id="Radial_Gradient_1-4" cx="-362.97" cy="22.49" r="6.76" gradientTransform="matrix(-0.94, 0.34, 0.34, 0.94, -227.02, 123.61)" xlink:href="#Radial_Gradient_1"/><linearGradient id="linear-gradient-2" x1="6260.81" y1="64.98" x2="6262.1" y2="64.98" gradientTransform="translate(-5774.87 2142.86) rotate(-20)" gradientUnits="userSpaceOnUse"><stop offset="0.06" stop-color="#200041"/><stop offset="0.19" stop-color="#210243"/><stop offset="0.25" stop-color="#25084b"/><stop offset="0.3" stop-color="#2c1358"/><stop offset="0.33" stop-color="#311b61"/><stop offset="0.63" stop-color="#311b61"/><stop offset="0.69" stop-color="#2a1155"/><stop offset="0.79" stop-color="#230446"/><stop offset="0.88" stop-color="#200041"/><stop offset="1" stop-color="#200041"/></linearGradient><linearGradient id="New_Gradient_Swatch_copy_23-5" x1="328.76" y1="56.47" x2="333.68" y2="56.47" gradientTransform="matrix(-0.94, 0.34, 0.34, 0.94, 420.23, -111.97)" xlink:href="#New_Gradient_Swatch_copy_23"/><linearGradient id="New_Gradient_Swatch_copy_23-6" x1="326.8" y1="47.46" x2="335.62" y2="47.46" gradientTransform="matrix(-0.94, 0.34, 0.34, 0.94, 420.23, -111.97)" xlink:href="#New_Gradient_Swatch_copy_23"/><linearGradient id="New_Gradient_Swatch_copy_35-11" x1="6256.19" y1="35.4" x2="6263.29" y2="43.02" gradientTransform="translate(-5774.87 2142.86) rotate(-20)" xlink:href="#New_Gradient_Swatch_copy_35"/><linearGradient id="New_Gradient_Swatch_copy_23-7" x1="-354.58" y1="41.01" x2="-360.77" y2="41.01" xlink:href="#New_Gradient_Swatch_copy_23"/><linearGradient id="linear-gradient-3" x1="-357.56" y1="42.92" x2="-357.56" y2="39.44" xlink:href="#linear-gradient"/><linearGradient id="New_Gradient_Swatch_copy_35-12" x1="5947.17" y1="46.38" x2="5954.18" y2="44.28" gradientTransform="translate(-5485.62 2037.58) rotate(-20)" xlink:href="#New_Gradient_Swatch_copy_35"/><linearGradient id="New_Gradient_Swatch_copy_35-13" x1="-276.64" y1="-8.47" x2="-211.04" y2="-28.12" gradientTransform="matrix(-0.94, 0.34, 0.34, 0.94, -227.02, 123.61)" xlink:href="#New_Gradient_Swatch_copy_35"/><linearGradient id="New_Gradient_Swatch_copy_35-14" x1="-315.14" y1="-0.53" x2="-268.13" y2="-11.07" gradientTransform="matrix(-0.94, 0.34, 0.34, 0.94, -227.02, 123.61)" xlink:href="#New_Gradient_Swatch_copy_35"/><linearGradient id="New_Gradient_Swatch_copy_35-15" x1="-250.77" y1="-73.75" x2="-280.33" y2="-17.43" gradientTransform="matrix(-0.94, 0.34, 0.34, 0.94, -227.02, 123.61)" xlink:href="#New_Gradient_Swatch_copy_35"/><linearGradient id="New_Gradient_Swatch_copy_35-16" x1="-295.63" y1="1.54" x2="-262.65" y2="-8.33" gradientTransform="matrix(-0.94, 0.34, 0.34, 0.94, -227.02, 123.61)" xlink:href="#New_Gradient_Swatch_copy_35"/><linearGradient id="New_Gradient_Swatch_copy_35-17" x1="-323.35" y1="5.65" x2="-285.45" y2="-2.85" gradientTransform="matrix(-0.94, 0.34, 0.34, 0.94, -227.02, 123.61)" xlink:href="#New_Gradient_Swatch_copy_35"/><linearGradient id="New_Gradient_Swatch_copy_35-18" x1="-285.74" y1="-32.61" x2="-299.4" y2="-6.59" gradientTransform="matrix(-0.94, 0.34, 0.34, 0.94, -227.02, 123.61)" xlink:href="#New_Gradient_Swatch_copy_35"/><linearGradient id="linear-gradient-4" x1="-304.36" y1="1.14" x2="-300.67" y2="-2.82" gradientTransform="matrix(-0.94, 0.34, 0.34, 0.94, -227.02, 123.61)" gradientUnits="userSpaceOnUse"><stop offset="0" stop-color="#65318a"/><stop offset="1" stop-color="#b086cc"/></linearGradient><linearGradient id="New_Gradient_Swatch_copy_23-8" x1="-331.2" y1="9.71" x2="-323.76" y2="22.08" xlink:href="#New_Gradient_Swatch_copy_23"/><linearGradient id="linear-gradient-5" x1="-307.12" y1="19.6" x2="-360.02" y2="8.94" xlink:href="#linear-gradient"/><linearGradient id="New_Gradient_Swatch_copy_35-19" x1="-2535.88" y1="31.61" x2="-2513.44" y2="26.58" gradientTransform="matrix(-0.94, 0.34, 0.34, 0.94, -2268.39, 866.61)" xlink:href="#New_Gradient_Swatch_copy_35"/><linearGradient id="New_Gradient_Swatch_copy_23-9" x1="-350.3" y1="32.73" x2="-354.74" y2="25.47" xlink:href="#New_Gradient_Swatch_copy_23"/><linearGradient id="linear-gradient-6" x1="-350.81" y1="28.08" x2="-355.01" y2="30.72" xlink:href="#linear-gradient"/><radialGradient id="radial-gradient-2" cx="-2522.66" cy="27.32" r="4.28" gradientTransform="matrix(-0.94, 0.34, 0.34, 0.94, -2268.39, 866.61)" gradientUnits="userSpaceOnUse"><stop offset="0" stop-color="#fff"/><stop offset="0.02" stop-color="#f7f7f7"/><stop offset="0.13" stop-color="#bebebe"/><stop offset="0.25" stop-color="#8b8b8b"/><stop offset="0.37" stop-color="#606060"/><stop offset="0.49" stop-color="#3e3e3e"/><stop offset="0.62" stop-color="#232323"/><stop offset="0.74" stop-color="#0f0f0f"/><stop offset="0.87" stop-color="#040404"/><stop offset="1"/></radialGradient><radialGradient id="radial-gradient-3" cx="3286.85" cy="-10713.97" r="4.03" gradientTransform="matrix(-3.92, -0.71, -0.08, 0.45, 12112.88, 7118.36)" xlink:href="#radial-gradient"/><linearGradient id="New_Gradient_Swatch_copy_35-20" x1="-301.91" y1="72.12" x2="-266.87" y2="-16.31" gradientTransform="matrix(-0.94, 0.34, 0.34, 0.94, -227.02, 123.61)" xlink:href="#New_Gradient_Swatch_copy_35"/><linearGradient id="New_Gradient_Swatch_copy_35-21" x1="-4331.76" y1="1951.74" x2="-4278.37" y2="1935.75" gradientTransform="matrix(-0.73, 0.29, 0.77, 1.06, -4622.38, -759.03)" xlink:href="#New_Gradient_Swatch_copy_35"/><radialGradient id="Radial_Gradient_1-5" cx="-285.93" cy="-10.02" r="21.73" gradientTransform="matrix(-0.94, 0.34, 0.34, 0.94, -227.02, 123.61)" xlink:href="#Radial_Gradient_1"/><linearGradient id="New_Gradient_Swatch_copy_23-10" x1="5499.6" y1="-12.52" x2="5504.41" y2="-4.52" gradientTransform="translate(-5143.24 1912.97) rotate(-20)" xlink:href="#New_Gradient_Swatch_copy_23"/><linearGradient id="New_Gradient_Swatch_copy_35-22" x1="3320.31" y1="-6.64" x2="3335.98" y2="-10.15" gradientTransform="translate(-3101.87 1169.97) rotate(-20)" xlink:href="#New_Gradient_Swatch_copy_35"/><radialGradient id="radial-gradient-4" cx="3329.55" cy="-9.64" r="2.99" gradientTransform="translate(-3101.87 1169.97) rotate(-20)" xlink:href="#radial-gradient-2"/><linearGradient id="New_Gradient_Swatch_copy_23-11" x1="5516.65" y1="44.14" x2="5521.46" y2="52.14" gradientTransform="translate(-5143.24 1912.97) rotate(-20)" xlink:href="#New_Gradient_Swatch_copy_23"/><linearGradient id="New_Gradient_Swatch_copy_35-23" x1="3337.36" y1="50.02" x2="3353.03" y2="46.51" gradientTransform="translate(-3101.87 1169.97) rotate(-20)" xlink:href="#New_Gradient_Swatch_copy_35"/><radialGradient id="radial-gradient-5" cx="3346.59" cy="47.02" r="2.99" gradientTransform="translate(-3101.87 1169.97) rotate(-20)" xlink:href="#radial-gradient-2"/><linearGradient id="New_Gradient_Swatch_copy_35-24" x1="5942.46" y1="31.85" x2="5949.48" y2="29.75" gradientTransform="translate(-5485.62 2037.58) rotate(-20)" xlink:href="#New_Gradient_Swatch_copy_35"/><linearGradient id="New_Gradient_Swatch_copy_35-25" x1="-356.48" y1="55.69" x2="-345.59" y2="28.22" gradientTransform="matrix(-0.94, 0.34, 0.34, 0.94, -227.02, 123.61)" xlink:href="#New_Gradient_Swatch_copy_35"/><linearGradient id="New_Gradient_Swatch_copy_35-26" x1="-4407.38" y1="1968.27" x2="-4385.57" y2="1961.74" gradientTransform="matrix(-0.73, 0.29, 0.77, 1.06, -4622.38, -759.03)" xlink:href="#New_Gradient_Swatch_copy_35"/><radialGradient id="Radial_Gradient_1-6" cx="-353.08" cy="28.02" r="6.76" gradientTransform="matrix(-0.94, 0.34, 0.34, 0.94, -227.02, 123.61)" xlink:href="#Radial_Gradient_1"/><linearGradient id="New_Gradient_Swatch_copy_35-27" x1="6257.2" y1="20.2" x2="6347.37" y2="-6.8" gradientTransform="translate(-5820.28 2159.39) rotate(-20)" xlink:href="#New_Gradient_Swatch_copy_35"/><linearGradient id="New_Gradient_Swatch_copy_34-2" x1="6256.29" y1="-12.77" x2="6289.68" y2="44.27" xlink:href="#New_Gradient_Swatch_copy_34"/><radialGradient id="Radial_Gradient_1-7" cx="6277.45" cy="16.12" r="24.69" gradientTransform="translate(-5820.28 2159.39) rotate(-20)" xlink:href="#Radial_Gradient_1"/><linearGradient id="New_Gradient_Swatch_copy_23-12" x1="5575.31" y1="30.29" x2="5578.02" y2="34.8" gradientTransform="translate(-5143.24 1912.97) rotate(-20)" xlink:href="#New_Gradient_Swatch_copy_23"/><linearGradient id="New_Gradient_Swatch_copy_35-28" x1="3399.04" y1="33.6" x2="3407.86" y2="31.63" gradientTransform="translate(-3101.87 1169.97) rotate(-20)" xlink:href="#New_Gradient_Swatch_copy_35"/><radialGradient id="radial-gradient-6" cx="3404.24" cy="31.91" r="1.68" gradientTransform="translate(-3101.87 1169.97) rotate(-20)" xlink:href="#radial-gradient-2"/><linearGradient id="New_Gradient_Swatch_copy_23-13" x1="5581.49" y1="45.12" x2="5584.2" y2="49.62" gradientTransform="translate(-5143.24 1912.97) rotate(-20)" xlink:href="#New_Gradient_Swatch_copy_23"/><linearGradient id="New_Gradient_Swatch_copy_35-29" x1="3405.22" y1="48.43" x2="3414.04" y2="46.45" gradientTransform="translate(-3101.87 1169.97) rotate(-20)" xlink:href="#New_Gradient_Swatch_copy_35"/><radialGradient id="radial-gradient-7" cx="3410.42" cy="46.74" r="1.68" gradientTransform="translate(-3101.87 1169.97) rotate(-20)" xlink:href="#radial-gradient-2"/><linearGradient id="New_Gradient_Swatch_copy_23-14" x1="5521.68" y1="-1.33" x2="5524.39" y2="3.17" gradientTransform="translate(-5143.24 1912.97) rotate(-20)" xlink:href="#New_Gradient_Swatch_copy_23"/><linearGradient id="New_Gradient_Swatch_copy_35-30" x1="3345.41" y1="1.97" x2="3354.23" y2="0" gradientTransform="translate(-3101.87 1169.97) rotate(-20)" xlink:href="#New_Gradient_Swatch_copy_35"/><radialGradient id="radial-gradient-8" cx="3350.61" cy="0.29" r="1.68" gradientTransform="translate(-3101.87 1169.97) rotate(-20)" xlink:href="#radial-gradient-2"/><radialGradient id="radial-gradient-9" cx="8.29" cy="-324.3" r="18.39" gradientTransform="matrix(0.96, 0, 0, 0.93, 87.93, 401.25)" gradientUnits="userSpaceOnUse"><stop offset="0" stop-color="#c7eeff"/><stop offset="1" stop-color="#2d00d4" stop-opacity="0"/></radialGradient><radialGradient id="radial-gradient-10" cx="8.29" cy="-324.3" r="9.34" gradientTransform="translate(191.78 385.75) rotate(-20) scale(0.96 0.93)" xlink:href="#radial-gradient-9"/><radialGradient id="radial-gradient-11" cx="8.29" cy="-324.3" r="5.81" gradientTransform="translate(191.78 385.75) rotate(-20) scale(0.96 0.93)" xlink:href="#radial-gradient-9"/></defs><title>brazorobot</title><g class="cls-1"><g id="Layer_2" data-name="Layer 2"><g id="Layer_1-2" data-name="Layer 1"><path class="cls-2" d="M53.7,101.44l43.41-15.8,1.68,4.62h0l.07.18c2.54,7-5.11,16.17-17.1,20.53S58,113.22,55.44,106.24c0-.06,0-.12,0-.18h0Z"/><ellipse class="cls-3" cx="75.6" cy="94.07" rx="23.1" ry="13.45" transform="translate(-27.62 31.53) rotate(-20)"/><path class="cls-4" d="M45.13,72.2,84.88,57.73l10,27.42h0l.06.16c2.33,6.39-4.68,14.81-15.66,18.8s-21.76,2-24.09-4.34a1,1,0,0,0,0-.16h0Z"/><ellipse class="cls-5" cx="65.23" cy="65.59" rx="21.15" ry="12.32" transform="translate(-18.5 26.27) rotate(-20)"/><ellipse class="cls-6" cx="65.03" cy="65.04" rx="21.15" ry="12.32" transform="translate(-18.32 26.16) rotate(-20)"/><path class="cls-7" d="M79.85,67.39c-1.65.61-1.15,6,1.12,12.13S86.43,90,88.09,89.41s1.15-6-1.12-12.13S81.51,66.77,79.85,67.39Z"/><path class="cls-8" d="M.29,16.12a2.1,2.1,0,0,0,1.43,1.49l5.05.94c.61.1.05-.43.66-1.15a6.58,6.58,0,0,0,1-5.86c-.32-.87.49-1.18-.11-1.29L3.21,9.34a2.14,2.14,0,0,0-1.88.93A6.55,6.55,0,0,0,.29,16.12Z"/><path class="cls-9" d="M3.27,17.61a2.84,2.84,0,0,0,1.95,2l6.89,1.28c.83.13.07-.58.9-1.57a9,9,0,0,0,1.43-8c-.44-1.2.67-1.61-.16-1.77l-7-1.24A2.9,2.9,0,0,0,4.69,9.61,9,9,0,0,0,3.27,17.61Z"/><path class="cls-10" d="M29.09,3.6l-.31-.35.85-.92a3.65,3.65,0,0,1,.69-.73l.13-.14,0,0A4.31,4.31,0,0,1,31.61.94h0c3.38-1,8.72,1.49,11.93,5.62L77.17,52.4c2.59,3.33,3,6.69,1.28,8.4l-.81,1-.22-.24a4.63,4.63,0,0,1-.56.21h0c-3.38,1-8.72-1.49-11.93-5.61L31.3,10.26C29.42,7.84,28.69,5.41,29.09,3.6Z"/><path class="cls-11" d="M75.85,62.85h0c3.38-1,3.52-5.2.31-9.32L42.53,7.69C39.32,3.56,34,1.05,30.61,2.07h0c-3.38,1-3.52,5.2-.31,9.32L63.92,57.24C67.13,61.36,72.47,63.87,75.85,62.85Z"/><path class="cls-12" d="M75.85,62.85h0c3.38-1,3.52-5.2.31-9.32L42.53,7.69C39.32,3.56,34,1.05,30.61,2.07h0c-3.38,1-3.52,5.2-.31,9.32L63.92,57.24C67.13,61.36,72.47,63.87,75.85,62.85Z"/><path class="cls-13" d="M76.08,53.77,42.45,7.92C39.24,3.8,33.9,1.29,30.52,2.31a3.63,3.63,0,0,0-1.94,1.33,3.56,3.56,0,0,1,2.21-1.76c3.38-1,8.72,1.49,11.92,5.62L76.34,53.34c2.4,3.08,2.93,6.18,1.63,8C78.91,59.48,78.3,56.61,76.08,53.77Z"/><polygon class="cls-14" points="63.33 62.18 67.33 73.17 54.22 70.84 50.19 59.76 63.33 62.18"/><polygon class="cls-15" points="63.31 62.18 67.31 73.18 75.82 63 71.78 51.92 63.31 62.18"/><polygon class="cls-16" points="71.78 51.92 63.31 62.18 50.19 59.76 58.69 49.52 71.78 51.92"/><path class="cls-17" d="M117.1,21.39,53.39,9.75c-1.65-.29-2.46.95-1.79,2.78l.31.85a6.31,6.31,0,0,0,4.19,3.83l63.71,11.63c1.66.29,2.46-.95,1.8-2.77l-.31-.85A6.34,6.34,0,0,0,117.1,21.39Z"/><path class="cls-18" d="M118.1,20.18,54.4,8.54a1.75,1.75,0,0,0-1.61.4h0l-1.06,1.29h0a1.67,1.67,0,0,1,1.67-.48L117.1,21.39a6.34,6.34,0,0,1,4.2,3.83l.31.85a2.51,2.51,0,0,1,0,2.13l.58-.77a2.36,2.36,0,0,0,.43-2.57L122.3,24A6.28,6.28,0,0,0,118.1,20.18Z"/><path class="cls-19" d="M117.2,21.22,53.49,9.59a1.63,1.63,0,0,0-1.76.58,1.81,1.81,0,0,1,1.52-.31L117,21.5a6.28,6.28,0,0,1,4.2,3.82l.31.86a2.43,2.43,0,0,1,0,2.18,2.16,2.16,0,0,0,.27-2.46l-.31-.85A6.33,6.33,0,0,0,117.2,21.22Z"/><path class="cls-20" d="M113.65,24.24l-.16-.18.44-.46a7.8,7.8,0,0,1,.83-.79l.07-.07h0a2,2,0,0,1,.59-.28h0c1.73-.52,4.46.76,6.11,2.88l8.39,10.74c1.33,1.7,1.54,3.43.66,4.3l-.9.9-.11-.12-.29.1h0c-1.73.53-4.47-.76-6.11-2.87l-8.4-10.74A4.38,4.38,0,0,1,113.65,24.24Z"/><path class="cls-21" d="M128.77,41.85h0c1.74-.52,1.81-2.66.16-4.77l-8.39-10.74c-1.65-2.11-4.38-3.4-6.12-2.88h0c-1.73.53-1.8,2.66-.15,4.78L122.66,39C124.31,41.09,127,42.38,128.77,41.85Z"/><path class="cls-22" d="M128.89,37.2l-8.4-10.74c-1.64-2.11-4.38-3.4-6.11-2.88a1.86,1.86,0,0,0-1,.69,1.81,1.81,0,0,1,1.13-.91c1.73-.52,4.46.77,6.11,2.88L129,37c1.23,1.58,1.5,3.17.84,4.09C130.34,40.13,130,38.66,128.89,37.2Z"/><path class="cls-23" d="M129.21,55l-1.23.44,5.07,13.91h0c.07.2.4.26.74.13s.56-.38.49-.58h0Z"/><path class="cls-24" d="M124.38,50.93l4.69-1.7,2.62,7.22h0c.28.76-.55,1.75-1.85,2.22s-2.57.25-2.84-.51v0h0Z"/><path class="cls-25" d="M118.79,41.4l8.43-3.06,3.49,9.59h0v0c.49,1.35-1,3.14-3.32,4s-4.61.44-5.1-.92v0h0Z"/><path class="cls-26" d="M127.22,38.36c.5,1.35-1,3.13-3.32,4s-4.61.44-5.1-.92,1-3.14,3.32-4S126.73,37,127.22,38.36Z"/><path class="cls-27" d="M126,38.76c.36,1-.71,2.24-2.37,2.85s-3.3.31-3.66-.66.72-2.25,2.38-2.85S125.66,37.79,126,38.76Z"/><path class="cls-28" d="M126,38.76c.36,1-.71,2.24-2.37,2.85s-3.3.31-3.66-.66.72-2.25,2.38-2.85S125.66,37.79,126,38.76Z"/><path class="cls-29" d="M122.15,46.92c.48,1.32-.26,2.19-1.66,1.95a4.91,4.91,0,0,1-3.4-2.85c-.48-1.32.26-2.19,1.66-2A4.91,4.91,0,0,1,122.15,46.92Z"/><path class="cls-30" d="M118.83,44a1.6,1.6,0,0,0-1.49.34,1.77,1.77,0,0,1,1.34-.21,4.94,4.94,0,0,1,3.4,2.84,1.5,1.5,0,0,1-.17,1.61,1.41,1.41,0,0,0,.32-1.74A4.85,4.85,0,0,0,118.83,44Z"/><polygon class="cls-31" points="37.95 16.66 43.3 31.36 11.66 25.77 6.39 11.3 37.95 16.66"/><polygon class="cls-32" points="37.93 16.67 43.28 31.37 53.22 20.19 47.81 5.33 37.93 16.67"/><polygon class="cls-33" points="47.81 5.33 37.93 16.67 6.39 11.3 16.33 0 47.81 5.33"/><polygon class="cls-34" points="53.78 19.4 58.1 31.25 43.55 28.61 39.3 16.94 53.78 19.4"/><polygon class="cls-35" points="53.77 19.41 58.08 31.26 66.09 22.25 61.73 10.26 53.77 19.41"/><polygon class="cls-36" points="61.73 10.26 53.77 19.41 39.3 16.94 47.31 7.83 61.73 10.26"/><path class="cls-37" d="M56.67,25.12c1,2.79,3.4,3.19,5.31.91a10.33,10.33,0,0,0,1.64-9.19c-1-2.79-3.39-3.19-5.31-.91A10.33,10.33,0,0,0,56.67,25.12Z"/><path class="cls-38" d="M57.37,24.4a2.78,2.78,0,0,0,1.9,2l53.8,9.55c.81.13.07-.57.87-1.53a8.71,8.71,0,0,0,1.39-7.78c-.42-1.16.65-1.57-.15-1.71L61.25,15.39a2.81,2.81,0,0,0-2.49,1.23A8.71,8.71,0,0,0,57.37,24.4Z"/><path class="cls-39" d="M57.37,24.4a2.78,2.78,0,0,0,1.9,2l53.8,9.55c.81.13.07-.57.87-1.53a8.71,8.71,0,0,0,1.39-7.78c-.42-1.16.65-1.57-.15-1.71L61.25,15.39a2.81,2.81,0,0,0-2.49,1.23A8.71,8.71,0,0,0,57.37,24.4Z"/><path class="cls-40" d="M111.27,33.94c.86,2.36,2.87,2.7,4.49.77a8.72,8.72,0,0,0,1.39-7.78c-.86-2.36-2.87-2.7-4.5-.77A8.75,8.75,0,0,0,111.27,33.94Z"/><path class="cls-41" d="M112.19,32.81c.59,1.6,2,1.83,3,.52a6,6,0,0,0,.94-5.28c-.58-1.6-2-1.83-3.05-.52A5.94,5.94,0,0,0,112.19,32.81Z"/><path class="cls-42" d="M112.19,32.81c.59,1.6,2,1.83,3,.52a6,6,0,0,0,.94-5.28c-.58-1.6-2-1.83-3.05-.52A5.94,5.94,0,0,0,112.19,32.81Z"/><path class="cls-43" d="M112.44,26.14a2.87,2.87,0,0,1,2.44-1.24,3.09,3.09,0,0,0-2.07,1.25,8.75,8.75,0,0,0-1.39,7.77,2.7,2.7,0,0,0,2.07,2c-1,.08-1.92-.61-2.43-2A8.74,8.74,0,0,1,112.44,26.14Z"/><path class="cls-44" d="M80.8,21.92c-.18,1,6.75,3.08,15.48,4.65s16,2,16.13,1.05S105.65,24.54,96.93,23,81,20.93,80.8,21.92Z"/><path class="cls-45" d="M17.48,16.79l-.32-.36.86-.91a3.13,3.13,0,0,1,.68-.73l.13-.14,0,0A4,4,0,0,1,20,14.13h0c3.38-1,8.72,1.49,11.93,5.62L65.55,65.59c2.59,3.33,3,6.69,1.28,8.4l-.8,1-.23-.25a3.11,3.11,0,0,1-.56.22h0c-3.38,1-8.72-1.49-11.93-5.61L19.69,23.45C17.8,21,17.07,18.6,17.48,16.79Z"/><path class="cls-46" d="M64.23,76h0c3.38-1,3.52-5.2.31-9.32L30.92,20.88c-3.21-4.13-8.55-6.64-11.93-5.62h0c-3.38,1-3.52,5.2-.31,9.32L52.31,70.42C55.51,74.55,60.86,77.06,64.23,76Z"/><path class="cls-47" d="M64.46,67,30.84,21.11C27.63,17,22.29,14.48,18.91,15.5A3.56,3.56,0,0,0,17,16.83a3.51,3.51,0,0,1,2.2-1.76c3.38-1,8.72,1.49,11.93,5.61L64.72,66.53c2.4,3.08,2.93,6.18,1.64,8C67.3,72.67,66.68,69.8,64.46,67Z"/><ellipse class="cls-48" cx="59.28" cy="69.64" rx="2.74" ry="4.74" transform="translate(-32.16 70.78) rotate(-50.31)"/><path class="cls-48" d="M27.67,23c.73,2-.39,3.33-2.5,3A7.4,7.4,0,0,1,20,21.63c-.73-2,.39-3.33,2.5-2.95A7.4,7.4,0,0,1,27.67,23Z"/><path class="cls-49" d="M26.79,23.14a1.92,1.92,0,0,1-.13,1.91l-1,1.26c-.38.43-.29-.28-1.16-.43a6.09,6.09,0,0,1-4.23-3.54c-.3-.81-1-.54-.69-1l1.12-1.3a2,2,0,0,1,1.89-.46A6.07,6.07,0,0,1,26.79,23.14Z"/><path class="cls-50" d="M25.7,24.43c.6,1.65-.33,2.74-2.06,2.43a6.05,6.05,0,0,1-4.23-3.54c-.6-1.64.32-2.73,2.06-2.42A6.1,6.1,0,0,1,25.7,24.43Z"/><path class="cls-51" d="M21.57,20.79a2,2,0,0,0-1.86.43A2.14,2.14,0,0,1,21.37,21a6.09,6.09,0,0,1,4.24,3.54,1.85,1.85,0,0,1-.21,2,1.75,1.75,0,0,0,.4-2.16A6.11,6.11,0,0,0,21.57,20.79Z"/><path class="cls-52" d="M62.19,70.55a2,2,0,0,1-.13,1.92l-1,1.25c-.37.43-.29-.27-1.15-.43a6.08,6.08,0,0,1-4.23-3.53c-.3-.82-1-.55-.69-1l1.12-1.3A2,2,0,0,1,58,67,6.11,6.11,0,0,1,62.19,70.55Z"/><path class="cls-53" d="M61.09,71.85c.6,1.64-.32,2.73-2.06,2.43a6.11,6.11,0,0,1-4.23-3.54c-.6-1.65.33-2.74,2.06-2.43A6.09,6.09,0,0,1,61.09,71.85Z"/><path class="cls-54" d="M57,68.2a2,2,0,0,0-1.85.43,2.18,2.18,0,0,1,1.66-.26A6.09,6.09,0,0,1,61,71.91a1.87,1.87,0,0,1-.2,2,1.78,1.78,0,0,0,.4-2.17A6.11,6.11,0,0,0,57,68.2Z"/><path class="cls-55" d="M112.76,34.87c.48,1.32-.26,2.2-1.66,2A4.9,4.9,0,0,1,107.7,34c-.48-1.33.26-2.2,1.66-1.95A4.9,4.9,0,0,1,112.76,34.87Z"/><path class="cls-30" d="M109.44,31.94a1.57,1.57,0,0,0-1.49.35,1.72,1.72,0,0,1,1.34-.21,4.92,4.92,0,0,1,3.4,2.84,1.5,1.5,0,0,1-.17,1.61,1.42,1.42,0,0,0,.32-1.75A4.9,4.9,0,0,0,109.44,31.94Z"/><path class="cls-56" d="M106.25,32.83l-.16-.18.44-.47a9,9,0,0,1,.84-.79l.06-.07,0,0a1.74,1.74,0,0,1,.58-.28h0c1.73-.53,4.47.76,6.11,2.87l8.4,10.74c1.33,1.71,1.53,3.43.65,4.31l-.89.9-.12-.13a2,2,0,0,1-.29.11h0c-1.73.52-4.46-.76-6.11-2.88l-8.39-10.74A4.38,4.38,0,0,1,106.25,32.83Z"/><path class="cls-57" d="M121.38,50.44h0c1.73-.53,1.8-2.66.16-4.78l-8.4-10.74c-1.64-2.11-4.38-3.4-6.11-2.87h0c-1.73.52-1.8,2.66-.16,4.77l8.4,10.74C116.91,49.68,119.65,51,121.38,50.44Z"/><path class="cls-58" d="M121.5,45.79,113.1,35c-1.64-2.11-4.38-3.39-6.11-2.87a1.87,1.87,0,0,0-1,.68,1.83,1.83,0,0,1,1.13-.9c1.73-.52,4.47.76,6.11,2.88l8.4,10.74c1.23,1.57,1.5,3.16.84,4.09C123,48.71,122.63,47.24,121.5,45.79Z"/><path class="cls-59" d="M108.13,32.06,44.42,20.42c-1.65-.29-2.46.95-1.79,2.78l.31.85a6.3,6.3,0,0,0,4.2,3.83l63.7,11.63c1.66.29,2.46-.95,1.8-2.77l-.31-.85A6.34,6.34,0,0,0,108.13,32.06Z"/><path class="cls-60" d="M109.13,30.85,45.43,19.21a1.72,1.72,0,0,0-1.61.4h0l-1.06,1.28v0a1.67,1.67,0,0,1,1.67-.48l63.71,11.64a6.34,6.34,0,0,1,4.2,3.83l.31.85a2.51,2.51,0,0,1,0,2.13l.58-.77a2.36,2.36,0,0,0,.43-2.57l-.31-.85A6.28,6.28,0,0,0,109.13,30.85Z"/><path class="cls-61" d="M108.23,31.89,44.52,20.26a1.63,1.63,0,0,0-1.76.58,1.77,1.77,0,0,1,1.52-.31L108,32.16a6.32,6.32,0,0,1,4.2,3.83l.31.85a2.45,2.45,0,0,1,0,2.19,2.16,2.16,0,0,0,.27-2.46l-.31-.85A6.31,6.31,0,0,0,108.23,31.89Z"/><path class="cls-48" d="M110.41,36.08c.41,1.12-.22,1.85-1.39,1.64a4.11,4.11,0,0,1-2.86-2.38c-.4-1.12.22-1.85,1.39-1.65A4.11,4.11,0,0,1,110.41,36.08Z"/><path class="cls-62" d="M122.59,41.8l1.88-.68c-1.26-3.45.34-6.26,1.88-9s3.47-6.11-.3-8.88a4.84,4.84,0,0,0-4-1.13c-2.12.49-3.32,2.74-4.37,4.73-.62,1.16-1.47,2.75-2,2.74a13.59,13.59,0,0,1-3.35-.25l-.78,1.84a14,14,0,0,0,4.11.41c1.77,0,2.76-1.84,3.8-3.8.86-1.61,1.82-3.44,3.05-3.72a3,3,0,0,1,2.32.79c2.25,1.65,1.55,3.12-.25,6.28C123,34,121,37.48,122.59,41.8Z"/><path class="cls-63" d="M109.79,36.2a1.08,1.08,0,0,1-.07,1.08s-.58.7-.58.71c-.21.24-.17-.16-.65-.24a3.47,3.47,0,0,1-2.39-2c-.16-.45-.59-.3-.38-.55,0,0,.62-.73.63-.73a1.09,1.09,0,0,1,1.06-.26A3.42,3.42,0,0,1,109.79,36.2Z"/><path class="cls-64" d="M109.18,36.93c.33.93-.19,1.54-1.16,1.37a3.46,3.46,0,0,1-2.39-2c-.33-.93.18-1.54,1.16-1.37A3.43,3.43,0,0,1,109.18,36.93Z"/><path class="cls-65" d="M106.85,34.88a1.13,1.13,0,0,0-1,.24,1.22,1.22,0,0,1,.94-.15,3.43,3.43,0,0,1,2.38,2,1,1,0,0,1-.11,1.12,1,1,0,0,0,.22-1.22A3.4,3.4,0,0,0,106.85,34.88Z"/><path class="cls-48" d="M121.29,47.9c.41,1.11-.22,1.85-1.39,1.64A4.15,4.15,0,0,1,117,47.15c-.4-1.11.22-1.85,1.39-1.64A4.11,4.11,0,0,1,121.29,47.9Z"/><path class="cls-66" d="M120.67,48a1.08,1.08,0,0,1-.07,1.08s-.58.69-.58.7c-.21.25-.17-.15-.65-.24a3.43,3.43,0,0,1-2.39-2c-.16-.46-.59-.31-.39-.55l.64-.74a1.11,1.11,0,0,1,1.06-.25A3.42,3.42,0,0,1,120.67,48Z"/><path class="cls-67" d="M120.06,48.75c.33.93-.19,1.54-1.16,1.37a3.47,3.47,0,0,1-2.39-2c-.33-.92.18-1.54,1.16-1.36A3.43,3.43,0,0,1,120.06,48.75Z"/><path class="cls-68" d="M117.73,46.7a1.11,1.11,0,0,0-1,.24,1.22,1.22,0,0,1,.94-.15,3.42,3.42,0,0,1,2.38,2,1.06,1.06,0,0,1-.11,1.13,1,1,0,0,0,.22-1.22A3.4,3.4,0,0,0,117.73,46.7Z"/><path class="cls-48" d="M49.2,24.71c.4,1.11-.22,1.84-1.39,1.64A4.11,4.11,0,0,1,45,24c-.41-1.12.22-1.85,1.39-1.64A4.1,4.1,0,0,1,49.2,24.71Z"/><path class="cls-69" d="M48.58,24.82a1.13,1.13,0,0,1-.07,1.08l-.59.71c-.21.24-.16-.16-.65-.24a3.46,3.46,0,0,1-2.38-2c-.17-.46-.59-.31-.39-.56,0,0,.63-.72.63-.73a1.12,1.12,0,0,1,1.07-.26A3.43,3.43,0,0,1,48.58,24.82Z"/><path class="cls-70" d="M48,25.55c.34.93-.18,1.54-1.16,1.37a3.42,3.42,0,0,1-2.38-2c-.34-.93.18-1.54,1.16-1.37A3.42,3.42,0,0,1,48,25.55Z"/><path class="cls-71" d="M45.64,23.5a1.16,1.16,0,0,0-1,.24,1.22,1.22,0,0,1,.94-.15,3.45,3.45,0,0,1,2.38,2,1,1,0,0,1-.11,1.12A1,1,0,0,0,48,25.49,3.42,3.42,0,0,0,45.64,23.5Z"/><ellipse class="cls-72" cx="95.92" cy="99.06" rx="17.69" ry="17.13" transform="translate(-28.1 38.79) rotate(-20)"/><path class="cls-73" d="M104.37,96a9,9,0,1,1-11.43-5.11A8.84,8.84,0,0,1,104.37,96Z"/><path class="cls-74" d="M101.17,97.15A5.59,5.59,0,1,1,94.07,94,5.5,5.5,0,0,1,101.17,97.15Z"/></g></g></g></svg>